inDegrees=no
num_controls=7
num_derivatives=13
num_iterations=77
num_multipliers=7
num_parameters=0
num_slacks=7
num_states=26
objective=0.453076
objective_accelerations=0.048185
objective_balance=0.001027
objective_effort=0.037522
objective_height=0.360723
objective_ligament=0.005619
solver_duration=845.489607
status=Solve_Succeeded
success=true
DataType=double
version=3
OpenSimVersion=4.5
endheader
time	/jointset/ground_pelvis/pelvis_tilt/value	/jointset/ground_pelvis/pelvis_tx/value	/jointset/ground_pelvis/pelvis_ty/value	/jointset/hip_r/hip_flexion_r/value	/jointset/hip_r/hip_adduction_r/value	/jointset/hip_r/hip_rotation_r/value	/jointset/back/lumbar_extension/value	/jointset/patellofemoral_r/patellar_flexion_r/value	/jointset/knee_r/knee_flexion_r/value	/jointset/knee_r/knee_adduction_r/value	/jointset/knee_r/knee_rotation_r/value	/jointset/ankle_r/ankle_angle_r/value	/jointset/subtalar_r/subtalar_angle_r/value	/jointset/ground_pelvis/pelvis_tilt/speed	/jointset/ground_pelvis/pelvis_tx/speed	/jointset/ground_pelvis/pelvis_ty/speed	/jointset/hip_r/hip_flexion_r/speed	/jointset/hip_r/hip_adduction_r/speed	/jointset/hip_r/hip_rotation_r/speed	/jointset/back/lumbar_extension/speed	/jointset/patellofemoral_r/patellar_flexion_r/speed	/jointset/knee_r/knee_flexion_r/speed	/jointset/knee_r/knee_adduction_r/speed	/jointset/knee_r/knee_rotation_r/speed	/jointset/ankle_r/ankle_angle_r/speed	/jointset/subtalar_r/subtalar_angle_r/speed	/forceset/tau_hip_flexion_r	/forceset/tau_hip_adduction_r	/forceset/tau_hip_rotation_r	/forceset/tau_knee_flexion_r	/forceset/tau_ankle_angle_r	/forceset/tau_subtalar_angle_r	/forceset/tau_lumbar_extension	lambda_cid13_p0	lambda_cid14_p0	lambda_cid14_p1	lambda_cid14_p2	lambda_cid14_p3	lambda_cid14_p4	lambda_cid14_p5	/jointset/ground_pelvis/pelvis_tilt/accel	/jointset/ground_pelvis/pelvis_tx/accel	/jointset/ground_pelvis/pelvis_ty/accel	/jointset/hip_r/hip_flexion_r/accel	/jointset/hip_r/hip_adduction_r/accel	/jointset/hip_r/hip_rotation_r/accel	/jointset/back/lumbar_extension/accel	/jointset/patellofemoral_r/patellar_flexion_r/accel	/jointset/knee_r/knee_flexion_r/accel	/jointset/knee_r/knee_adduction_r/accel	/jointset/knee_r/knee_rotation_r/accel	/jointset/ankle_r/ankle_angle_r/accel	/jointset/subtalar_r/subtalar_angle_r/accel	gamma_cid13_p0	gamma_cid14_p0	gamma_cid14_p1	gamma_cid14_p2	gamma_cid14_p3	gamma_cid14_p4	gamma_cid14_p5
1.5	-0.07385051585991283	0.03125482658796006	0.8170361631400677	0.8049574393871166	-0.2199660461700628	-0.1371478252858074	-0.6272876496507733	0.9417169315958687	0.941716931595869	-0.0618474628945682	0.1744867186227554	0.3051699088467842	0.1477555391341652	0.4491496520428645	0.2181663776955637	0.5090579744749979	-1.992294723951087	0.03237255771677541	-0.1960123401382751	0.7942435639972397	-1.967172319157746	-1.967172319157762	0.4306130990440104	0.0009740643274536527	-0.5278941724195885	-0.1658762342375206	-0.1537120664100531	0.009612978288556234	0.01881598214087099	-0.3117829740855723	0.02163073044042689	-0.005168622613293916	0.2095162926170277	-9.234204977132064	-35.5795529863648	-8.433584505677549	1.719793878610151	-3.005955200468559	-630.3407237008423	59.35331354459828	0.1372514748061112	0.5605390323880708	-0.5131756034193805	-0.9580613900051933	-0.1912358729848098	-0.4918653344362213	1.779899881017543	-1.308609387277591	-1.3086093872776	0.5001274806461914	-0.05077569961230899	-0.6537201476342295	-0.3972748897213864	1.694934609912262e-07	1.606773510868583e-07	-8.060525237485881e-07	1.662374584110417e-06	-5.233672924851965e-10	2.828195064123761e-07	-5.965460564936119e-07
1.51	-0.06935254468516908	0.03346428805523715	0.8221000659442885	0.7849886712248112	-0.2196526127368526	-0.1391324730446021	-0.6192576189204527	0.9219822652419732	0.9219822652419732	-0.05751534476912975	0.1744948239954655	0.2998588831446168	0.1460761863821018	0.4503734122063395	0.2236996511231426	0.503615917190772	-2.001193915732001	0.03031038637109204	-0.2009839962520588	0.8116565643700887	-1.979498790553278	-1.979498790553277	0.435716051817731	0.0006713441616737171	-0.5342236298594265	-0.1699467465997542	-0.1466741190949768	0.007892105266471642	0.01857887446522721	-0.3077799431249785	0.02326346427106787	-0.005638772130312614	0.2029921148452308	-10.27022804018271	-34.75800994774724	-8.307851641478956	1.487209003281508	-3.135554909035776	-625.5739783985013	59.30054901736278	0.1042751015584956	0.5457800682525782	-0.5756713513859779	-0.8160824431454052	-0.2141228799267545	-0.5096216014039863	1.706097460897534	-1.155365681299411	-1.155365681296827	0.501140652268056	-0.01614186746384487	-0.6094326840396584	-0.4047428035095326	1.362529773266873e-07	1.346357145682443e-07	-6.452901817041233e-07	1.398221605913107e-06	-5.900747674509256e-09	2.605524240466795e-07	-5.191743340637256e-07
1.52	-0.06484446854590249	0.03572829397085199	0.8271063580635749	0.7649388642704944	-0.2193598840400124	-0.1411687985348457	-0.6110566387173078	0.9021321942410008	0.9021321942410006	-0.0531350448206475	0.1745006778280372	0.2944871880396748	0.1443575678276091	0.4511706449474276	0.229075267363113	0.4975358374880741	-2.008502482353351	0.028231610442754	-0.2063478864280539	0.8284334585620962	-1.990253248573145	-1.990253248573127	0.4402494636527736	0.0005237562997734112	-0.5400280529745066	-0.1737293947233952	-0.1396361717799005	0.006171232244386959	0.01834176678958424	-0.3037769121643962	0.02489619810170882	-0.006108921647331541	0.1964679370734068	-11.30877706909198	-33.93725449029272	-8.180998880466083	1.253008862432065	-3.278111570365358	-620.8124265922648	59.30213630349142	0.05194599032872754	0.5290075948663748	-0.6407800871138392	-0.639936358092366	-0.1945567895157466	-0.5703121468784953	1.652678644849276	-0.994206712144541	-0.9942067121444026	0.3862192929105579	-0.01974923883638376	-0.5487132826826149	-0.339702042002853	1.210159173499152e-07	1.147670769760121e-07	-6.391800234975921e-07	1.204028649914115e-06	2.597535621067351e-09	2.477062742570506e-07	-5.253288311750946e-07
1.53	-0.06033054508993387	0.03804521230561098	0.8320487269313005	0.7448239231191902	-0.2190881309563738	-0.1432600221799687	-0.6026911735781642	0.8821825914677882	0.8821825914677882	-0.04871146461778286	0.1745056116107541	0.289060087851559	0.1426023780997279	0.45154439108607	0.2342761977525638	0.4908381623363452	-2.014219399223402	0.02610020280179241	-0.2118407817320525	0.8445411455096176	-1.999382114120011	-1.999382114120007	0.4444922056605566	0.0004349862414835657	-0.5453038564066439	-0.1772887888099854	-0.1326338478633931	0.004338687302055218	0.01815535199780454	-0.2999085677163612	0.026490597217675	-0.006661439626982998	0.1899702336598991	-12.34710881378604	-33.15554658431107	-8.103392769357331	1.034241518028587	-3.357448384653933	-616.3115160291202	59.26869770642908	0.01964954065500117	0.5108131417573779	-0.6991786170276851	-0.4976047148408976	-0.2251686810883802	-0.5301622902232714	1.572050156155893	-0.8294730817274008	-0.8294730817297425	0.4470350328100823	-0.00746867993499762	-0.5037602823929567	-0.3611115708375724	1.24907495041395e-07	1.014572507430605e-07	-7.973878106188634e-07	1.084168217500834e-06	2.583871157409451e-08	2.448698653294935e-07	-6.202299365490465e-07
1.54	-0.05581497204957423	0.04041317542041904	0.8369211355699435	0.7246598057265097	-0.2188382391350853	-0.1454044515917416	-0.594168184282255	0.862150250717953	0.8621502507179529	-0.04424471031922089	0.1745088521347663	0.2835828803473393	0.1408121837352106	0.4515005618256331	0.2392842233729292	0.4835437916716053	-2.018337730628631	0.02385935797273987	-0.2169890397580355	0.8599382899152329	-2.006800843897668	-2.00680084389768	0.4488842827922784	0.0001851045587761991	-0.5500495161953363	-0.1807303220505944	-0.1256315239468858	0.002506142359723462	0.01796893720602457	-0.2960402232683261	0.02808499633364119	-0.007213957606634467	0.1834725302463913	-13.38177028770231	-32.37514480030057	-8.025398669840841	0.8147071575953403	-3.446035792760601	-611.8223867135653	59.28469427178241	-0.03156908948708151	0.4904266410493213	-0.7601191897160454	-0.320219265127757	-0.2164442271349732	-0.5013846912753623	1.510570136468023	-0.6521795583027168	-0.6521795583027176	0.4160863177005619	-0.05197156372279007	-0.4426845539944363	-0.3161298728066367	1.252960792660049e-07	8.561091794373714e-08	-9.472407693104074e-07	9.426608866726349e-07	4.877984654255615e-08	2.429600663846722e-07	-7.109161354397219e-07
1.55	-0.05130197454205921	0.0428302073503916	0.8417176959688552	0.7044625646051181	-0.2186110149458078	-0.1476003257812227	-0.5854948590109327	0.8420521190287461	0.8420521190287467	-0.03973503450697365	0.1745094893938721	0.2780609823929692	0.1389886775906233	0.4510247151329524	0.2440848246099364	0.4756764607548493	-2.020834656005587	0.02158960596530674	-0.2222371436816649	0.8745984524201612	-2.012544968324048	-2.012544968324042	0.4529596066411422	-3.595916945584e-05	-0.5542312898981315	-0.1839129680478649	-0.1185898420407023	0.0005544754571860235	0.01779140750661254	-0.2924832918527926	0.02988645606226958	-0.0078482564375834	0.1769681757234654	-14.4082798607652	-31.55699538204844	-7.986118841421515	0.6125462298787679	-3.548332094865669	-607.6480603246176	59.3139616786959	-0.06672250413365934	0.4692929489392583	-0.8137658160326849	-0.1730472200759021	-0.2316069982584955	-0.5440443333175432	1.424492518148571	-0.4934739663018159	-0.4934739662991093	0.3894136431757051	-0.003815645834831669	-0.3910647516941881	-0.3107432782592969	1.216486058005258e-07	6.684208844837684e-08	-1.087467512637266e-06	7.762125641924657e-07	7.137528211575754e-08	2.421178832895246e-07	-7.967460290344483e-07
1.56	-0.04679596151046602	0.0452941285095168	0.8464328379039237	0.6842486306207379	-0.2184063615387469	-0.1498501852280223	-0.5766787814724326	0.821904957078976	0.8219049570789775	-0.03518737381129851	0.1745085876420034	0.2725002385069168	0.1371350627230489	0.4501036666412679	0.2486620692034573	0.467260098903001	-2.021676303226394	0.01934520152943136	-0.2277860912217319	0.8884887433508222	-2.016606896010278	-2.016606896010254	0.4564812594778628	-0.0001226976361447076	-0.5578187025318114	-0.1867520666480172	-0.1115481601345189	-0.00139719144535143	0.01761387780720054	-0.2889263604372653	0.03168791579089796	-0.008482555268532359	0.1704638212005487	-15.4235053919942	-30.74074964228192	-7.947396886406421	0.4107309018257337	-3.656442722207682	-603.4935081517854	59.38606470795471	-0.1206094492878395	0.4457553123520605	-0.8699253767344898	0.01083636610218391	-0.211374712823421	-0.5615534145628819	1.356595821614526	-0.3157402102729584	-0.3157402102728981	0.3053521152719382	-0.02510651141415582	-0.3238123401713335	-0.2474203933829907	1.208369385100253e-07	5.008791326977731e-08	-1.240403346259037e-06	6.07269871957431e-07	9.439534448058277e-08	2.396185463067399e-07	-8.711470360806266e-07
1.57	-0.04230143413324024	0.04780262609970033	0.8510611621461556	0.6640346569792765	-0.21822380614106	-0.1521572903047208	-0.5677277916665701	0.8017255621868062	0.8017255621868076	-0.03060774767545138	0.1745074798965102	0.2669066117759049	0.1352550887083961	0.4487217390908383	0.2529919138989216	0.4583214049052579	-2.020827367840657	0.01718227790977376	-0.233643166437183	0.9015673553192334	-2.018981115823135	-2.018981115823126	0.4593619800869755	-0.0001112544687711066	-0.5608060487784431	-0.1891711335727762	-0.104503894710305	-0.003365780591569058	0.01743771741310817	-0.2855909669133646	0.03351706099798907	-0.009222686344335922	0.163971464404581	-16.42510691173003	-29.95012846259271	-7.968928963547573	0.2297206761612852	-3.700504183286136	-599.6895076738953	59.41441123852449	-0.1589951090305832	0.4197951091478639	-0.918296623789269	0.1655821947367331	-0.2163612624937249	-0.5988615981790832	1.262214509085959	-0.1546429054366989	-0.1546429054391649	0.2669265190092583	0.01244331323057087	-0.2710538970456305	-0.2286066138209168	1.235700289382482e-07	3.585205598712874e-08	-1.409225542749447e-06	4.352092175288143e-07	1.179461903349378e-07	2.350477669644088e-07	-9.312619349411196e-07
